<?xml version="1.0" encoding="utf-8"?>
<!-- Generator: Adobe Illustrator 18.1.1, SVG Export Plug-In . SVG Version: 6.00 Build 0)  -->
<svg version="1.1" id="Слой_1" xmlns="http://www.w3.org/2000/svg" xmlns:xlink="http://www.w3.org/1999/xlink" x="0px" y="0px"
	 viewBox="0 0 700 700" enable-background="new 0 0 700 700" xml:space="preserve">
<path fill="#FFFFFF" d="M35.8,245.9c-0.9,0.5-1.7,1-2.3,1.4c-0.6,0.4-1.2,0.9-1.7,1.5c-0.6,0.6-1,1.2-1.3,1.8
	c-0.3,0.7-0.5,1.5-0.6,2.5h1.4c1.2,0,2.2,0.3,2.9,0.9c0.7,0.6,1.1,1.5,1.1,2.7c0,0.8-0.3,1.6-0.9,2.3c-0.6,0.7-1.5,1.1-2.6,1.1
	c-1.7,0-2.9-0.6-3.6-1.7s-1.1-2.6-1.1-4.4c0-1.3,0.3-2.4,0.8-3.5c0.6-1.1,1.2-2,2-2.8c0.8-0.8,1.7-1.6,2.6-2.2s1.7-1.1,2.3-1.4
	L35.8,245.9z"/>
<path fill="#FFFFFF" d="M49.5,245.9c-0.9,0.5-1.7,1-2.3,1.4c-0.6,0.4-1.2,0.9-1.7,1.5c-0.6,0.6-1,1.2-1.3,1.8
	c-0.3,0.7-0.5,1.5-0.6,2.5H45c1.2,0,2.2,0.3,2.9,0.9c0.7,0.6,1.1,1.5,1.1,2.7c0,0.8-0.3,1.6-0.9,2.3c-0.6,0.7-1.5,1.1-2.6,1.1
	c-1.7,0-2.9-0.6-3.6-1.7s-1.1-2.6-1.1-4.4c0-1.3,0.3-2.4,0.8-3.5c0.6-1.1,1.2-2,2-2.8c0.8-0.8,1.7-1.6,2.6-2.2s1.7-1.1,2.3-1.4
	L49.5,245.9z"/>
<path fill="#FFFFFF" d="M73.5,289.4H54.6v-2.1c0.5,0,1.3-0.1,2.3-0.2c1-0.1,1.7-0.2,2.1-0.4c0.7-0.3,1.1-0.6,1.4-1.1
	c0.3-0.4,0.4-1.1,0.4-1.9v-30.4c0-0.7-0.1-1.3-0.3-1.7c-0.2-0.5-0.7-0.9-1.5-1.2c-0.6-0.2-1.3-0.5-2.2-0.7c-0.9-0.2-1.6-0.3-2.2-0.4
	v-2.1h18.9v2.1c-0.6,0-1.3,0.1-2.2,0.2c-0.8,0.1-1.6,0.3-2.2,0.5c-0.8,0.2-1.3,0.6-1.5,1.2c-0.3,0.5-0.4,1.1-0.4,1.8v30.4
	c0,0.7,0.1,1.2,0.4,1.7c0.3,0.5,0.8,0.9,1.5,1.2c0.4,0.2,1.1,0.3,2,0.5c0.9,0.2,1.7,0.3,2.4,0.3V289.4z"/>
<path fill="#FFFFFF" d="M99.7,247.1c0,0.9-0.2,1.6-0.7,2.3c-0.5,0.6-1.2,0.9-2.2,0.9c-0.6,0-1.2-0.1-1.6-0.4c-0.5-0.3-0.9-0.6-1.3-1
	c-0.4-0.4-0.8-0.9-1.1-1.5c-0.3-0.6-0.6-1-0.9-1.3c-1.3,0.1-2.3,1-3.1,2.8c-0.7,1.8-1.1,4.6-1.1,8.5v3h7.5v2.8h-7.5v21
	c0,0.7,0.1,1.3,0.4,1.7c0.3,0.4,0.7,0.8,1.3,1c0.5,0.2,1.1,0.3,1.9,0.4c0.8,0.1,1.5,0.2,2,0.2v2H78v-2c0.5,0,0.9-0.1,1.4-0.1
	c0.5,0,0.9-0.1,1.3-0.2c0.6-0.2,1-0.5,1.2-0.9c0.3-0.4,0.4-1,0.4-1.7v-21.3h-5.8v-2.8h5.8v-1.9c0-4.4,1.1-8,3.5-10.8
	c2.3-2.7,5.2-4.1,8.6-4.1c1.8,0,3.1,0.3,4,1C99.3,245.2,99.7,246.1,99.7,247.1z"/>
<path fill="#FFFFFF" d="M144.1,289.4h-14.4v-2c0.5,0,1-0.1,1.5-0.1c0.6,0,1-0.1,1.4-0.2c0.6-0.2,1-0.5,1.2-0.9s0.4-1,0.4-1.7v-15
	c0-2.1-0.5-3.7-1.5-4.8s-2.2-1.7-3.6-1.7c-1,0-2,0.2-2.9,0.5c-0.9,0.3-1.7,0.7-2.4,1.2c-0.7,0.5-1.2,1-1.5,1.5
	c-0.4,0.5-0.6,0.9-0.8,1.2v16.8c0,0.7,0.1,1.2,0.4,1.7c0.3,0.4,0.7,0.8,1.2,1c0.4,0.2,0.9,0.3,1.3,0.4c0.5,0.1,1,0.2,1.5,0.2v2
	h-14.3v-2c0.5,0,0.9-0.1,1.4-0.1c0.5,0,0.9-0.1,1.2-0.2c0.5-0.2,1-0.5,1.2-0.9c0.3-0.4,0.4-1,0.4-1.7v-34c0-0.7-0.2-1.3-0.5-2
	s-0.7-1.2-1.2-1.5c-0.4-0.3-1-0.4-1.9-0.5c-0.9-0.1-1.6-0.2-2.2-0.2v-1.9l10.8-0.7l0.4,0.4v20.4h0.1c0.7-0.7,1.2-1.2,1.8-1.7
	c0.5-0.5,1.2-1,2.1-1.6c0.8-0.5,1.6-0.9,2.7-1.2c1-0.3,2.2-0.5,3.4-0.5c2.6,0,4.6,0.8,6,2.5s2.1,4,2.1,7.1v15.2
	c0,0.7,0.1,1.2,0.4,1.7c0.2,0.4,0.7,0.8,1.2,1c0.5,0.2,0.9,0.3,1.2,0.4s0.9,0.2,1.4,0.2V289.4z"/>
<path fill="#FFFFFF" d="M173.6,282.5c-1.2,2.3-2.9,4.2-4.9,5.6c-2.1,1.4-4.4,2.1-7.1,2.1c-2.3,0-4.4-0.4-6.2-1.2
	c-1.8-0.8-3.2-2-4.4-3.4c-1.1-1.4-2-3.1-2.6-5c-0.6-1.9-0.8-3.9-0.8-6c0-1.9,0.3-3.8,0.9-5.6c0.6-1.8,1.5-3.5,2.7-4.9
	c1.1-1.4,2.5-2.5,4.2-3.4c1.7-0.9,3.5-1.3,5.6-1.3c2.1,0,4,0.3,5.5,1c1.5,0.7,2.8,1.6,3.7,2.8c0.9,1.1,1.6,2.4,2,3.9
	c0.4,1.5,0.7,3.1,0.7,4.9v2h-19.3c0,1.9,0.2,3.7,0.5,5.2c0.4,1.6,0.9,2.9,1.7,4.1c0.8,1.1,1.8,2.1,3,2.7c1.2,0.7,2.7,1,4.4,1
	c1.8,0,3.3-0.4,4.5-1.2s2.5-2.3,3.7-4.5L173.6,282.5z M167,271.4c0-1.1-0.1-2.3-0.3-3.5c-0.2-1.3-0.5-2.3-0.9-3.2
	c-0.5-0.9-1.1-1.6-1.9-2.2c-0.8-0.6-1.8-0.9-3.1-0.9c-2.1,0-3.8,0.9-5.2,2.6c-1.4,1.7-2.1,4.1-2.2,7.2H167z"/>
<path fill="#FFFFFF" d="M204.6,288.8c-0.9,0.3-1.7,0.6-2.4,0.8c-0.7,0.2-1.5,0.3-2.4,0.3c-1.5,0-2.8-0.4-3.7-1.1
	c-0.9-0.7-1.5-1.8-1.8-3.2h-0.2c-1.3,1.4-2.7,2.5-4.1,3.3c-1.5,0.8-3.2,1.1-5.3,1.1c-2.2,0-4-0.7-5.4-2s-2.1-3.1-2.1-5.3
	c0-1.1,0.2-2.1,0.5-3c0.3-0.9,0.8-1.7,1.4-2.4c0.5-0.6,1.1-1.1,2-1.6c0.8-0.5,1.6-0.8,2.3-1.1c0.9-0.3,2.7-1,5.4-1.9
	c2.7-0.9,4.5-1.6,5.5-2.1v-2.9c0-0.3-0.1-0.8-0.2-1.5c-0.1-0.7-0.3-1.4-0.7-2.1c-0.4-0.7-1-1.4-1.7-1.9c-0.7-0.5-1.7-0.8-3.1-0.8
	c-0.9,0-1.8,0.2-2.5,0.5c-0.8,0.3-1.3,0.6-1.6,1c0,0.4,0.1,1,0.3,1.7s0.3,1.5,0.3,2.1c0,0.7-0.3,1.3-0.9,1.9
	c-0.6,0.6-1.5,0.9-2.6,0.9c-1,0-1.7-0.4-2.2-1.1c-0.5-0.7-0.7-1.5-0.7-2.4c0-0.9,0.3-1.8,1-2.6s1.5-1.6,2.5-2.2c0.9-0.6,2-1,3.2-1.4
	c1.3-0.4,2.5-0.6,3.7-0.6c1.7,0,3.1,0.1,4.3,0.3c1.2,0.2,2.4,0.7,3.4,1.5c1,0.7,1.8,1.7,2.3,3c0.5,1.3,0.8,2.9,0.8,4.8
	c0,2.8,0,5.3-0.1,7.5c-0.1,2.2-0.1,4.6-0.1,7.2c0,0.8,0.1,1.4,0.4,1.8c0.3,0.5,0.7,0.8,1.2,1.2c0.3,0.2,0.8,0.3,1.4,0.3
	c0.6,0,1.3,0,2,0V288.8z M194.3,273.2c-1.7,0.5-3.1,1-4.4,1.5c-1.3,0.5-2.4,1.1-3.5,1.8c-1,0.7-1.8,1.5-2.3,2.4
	c-0.6,0.9-0.9,2-0.9,3.3c0,1.6,0.4,2.8,1.3,3.6c0.9,0.8,1.9,1.2,3.3,1.2c1.4,0,2.6-0.3,3.7-1c1.1-0.7,2-1.5,2.7-2.4L194.3,273.2z"/>
<path fill="#FFFFFF" d="M236.4,262c-0.9,0.2-1.7,0.5-2.5,1c-0.8,0.5-1.5,1.3-2.1,2.6c-1.2,2.6-2.4,5.4-3.6,8.3s-2.5,5.9-3.9,9
	c-0.4,0.9-0.8,2-1.3,3.2s-0.9,2.4-1.2,3.6h-2.3c-1.9-4.6-3.6-8.9-5.2-12.7c-1.6-3.8-3.2-7.7-4.9-11.7c-0.4-0.9-1-1.6-1.9-2.1
	c-0.9-0.5-1.8-0.8-2.7-1v-2h13.5v2.1c-0.6,0-1.3,0.1-2.2,0.4c-0.9,0.2-1.3,0.5-1.3,0.9c0,0.1,0,0.2,0.1,0.5s0.2,0.5,0.3,0.8
	c0.8,2,1.9,4.8,3.4,8.4c1.5,3.6,2.7,6.5,3.6,8.7c0.7-1.7,1.6-3.8,2.7-6.3c1.1-2.5,2.2-5.3,3.5-8.5c0.2-0.5,0.4-1,0.6-1.5
	c0.2-0.5,0.3-0.9,0.3-1.4c0-0.3-0.2-0.6-0.5-0.9c-0.3-0.3-0.7-0.5-1.2-0.7c-0.5-0.2-0.9-0.3-1.3-0.4c-0.4-0.1-0.8-0.2-1.1-0.2v-1.9
	h11.2V262z"/>
<path fill="#FFFFFF" d="M263.6,282.5c-1.2,2.3-2.9,4.2-4.9,5.6c-2.1,1.4-4.4,2.1-7.1,2.1c-2.3,0-4.4-0.4-6.2-1.2
	c-1.8-0.8-3.2-2-4.4-3.4c-1.1-1.4-2-3.1-2.6-5c-0.6-1.9-0.8-3.9-0.8-6c0-1.9,0.3-3.8,0.9-5.6c0.6-1.8,1.5-3.5,2.7-4.9
	c1.1-1.4,2.5-2.5,4.2-3.4c1.7-0.9,3.5-1.3,5.6-1.3c2.1,0,4,0.3,5.5,1c1.5,0.7,2.8,1.6,3.7,2.8c0.9,1.1,1.6,2.4,2,3.9
	c0.4,1.5,0.7,3.1,0.7,4.9v2h-19.3c0,1.9,0.2,3.7,0.5,5.2c0.4,1.6,0.9,2.9,1.7,4.1c0.8,1.1,1.8,2.1,3,2.7c1.2,0.7,2.7,1,4.4,1
	c1.8,0,3.3-0.4,4.5-1.2s2.5-2.3,3.7-4.5L263.6,282.5z M257,271.4c0-1.1-0.1-2.3-0.3-3.5c-0.2-1.3-0.5-2.3-0.9-3.2
	c-0.5-0.9-1.1-1.6-1.9-2.2c-0.8-0.6-1.8-0.9-3.1-0.9c-2.1,0-3.8,0.9-5.2,2.6c-1.4,1.7-2.1,4.1-2.2,7.2H257z"/>
<path fill="#FFFFFF" d="M299.2,289.4h-14.3v-2c0.5,0,1-0.1,1.5-0.1c0.5,0,1-0.1,1.3-0.2c0.6-0.2,1-0.5,1.2-0.9s0.4-1,0.4-1.7v-15
	c0-2.1-0.5-3.7-1.5-4.8s-2.2-1.7-3.6-1.7c-1,0-2,0.2-2.9,0.5c-0.9,0.3-1.6,0.7-2.3,1.2c-0.7,0.5-1.2,0.9-1.6,1.5
	c-0.4,0.5-0.7,0.9-0.8,1.3v16.8c0,0.7,0.1,1.2,0.4,1.7c0.3,0.4,0.7,0.8,1.2,1c0.4,0.2,0.9,0.3,1.3,0.4c0.5,0.1,1,0.2,1.5,0.2v2H267
	v-2c0.5,0,0.9-0.1,1.4-0.1c0.5,0,0.9-0.1,1.3-0.2c0.6-0.2,1-0.5,1.2-0.9c0.3-0.4,0.4-1,0.4-1.7v-18c0-0.7-0.1-1.3-0.4-1.8
	c-0.3-0.6-0.7-1-1.2-1.4c-0.4-0.2-0.8-0.4-1.3-0.5c-0.5-0.1-1.1-0.2-1.7-0.2v-2l9.7-0.7l0.4,0.4v4.1h0.1c0.5-0.5,1.1-1,1.8-1.7
	c0.7-0.7,1.4-1.2,2-1.6c0.7-0.5,1.6-0.9,2.6-1.2c1-0.3,2.1-0.5,3.4-0.5c2.8,0,4.9,0.9,6.2,2.6c1.4,1.7,2,4.1,2,7v15.2
	c0,0.7,0.1,1.2,0.4,1.7c0.2,0.4,0.6,0.8,1.2,1c0.5,0.2,0.9,0.3,1.2,0.4c0.3,0.1,0.8,0.1,1.4,0.2V289.4z"/>
<path fill="#FFFFFF" d="M349.2,289.4h-14.4v-2c0.5,0,1-0.1,1.5-0.1c0.6,0,1-0.1,1.4-0.2c0.6-0.2,1-0.5,1.2-0.9s0.4-1,0.4-1.7v-15
	c0-2.1-0.5-3.7-1.5-4.8c-1-1.1-2.2-1.7-3.6-1.7c-1,0-2,0.2-2.9,0.5c-0.9,0.3-1.7,0.7-2.4,1.2c-0.7,0.5-1.2,1-1.5,1.5
	c-0.4,0.5-0.6,0.9-0.8,1.2v16.8c0,0.7,0.1,1.2,0.4,1.7c0.3,0.4,0.7,0.8,1.2,1c0.4,0.2,0.9,0.3,1.3,0.4c0.5,0.1,1,0.2,1.5,0.2v2
	h-14.3v-2c0.5,0,0.9-0.1,1.4-0.1c0.5,0,0.9-0.1,1.2-0.2c0.5-0.2,1-0.5,1.2-0.9c0.3-0.4,0.4-1,0.4-1.7v-34c0-0.7-0.2-1.3-0.5-2
	s-0.7-1.2-1.2-1.5c-0.4-0.3-1-0.4-1.9-0.5c-0.9-0.1-1.6-0.2-2.2-0.2v-1.9l10.8-0.7l0.4,0.4v20.4h0.1c0.7-0.7,1.2-1.2,1.8-1.7
	c0.5-0.5,1.2-1,2.1-1.6c0.8-0.5,1.6-0.9,2.7-1.2c1-0.3,2.2-0.5,3.4-0.5c2.6,0,4.6,0.8,6,2.5s2.1,4,2.1,7.1v15.2
	c0,0.7,0.1,1.2,0.4,1.7c0.2,0.4,0.7,0.8,1.2,1c0.5,0.2,0.9,0.3,1.2,0.4c0.4,0.1,0.8,0.2,1.4,0.2V289.4z"/>
<path fill="#FFFFFF" d="M380.4,288.8c-0.9,0.3-1.7,0.6-2.4,0.8c-0.7,0.2-1.5,0.3-2.4,0.3c-1.5,0-2.8-0.4-3.7-1.1
	c-0.9-0.7-1.5-1.8-1.8-3.2h-0.2c-1.3,1.4-2.7,2.5-4.1,3.3c-1.5,0.8-3.2,1.1-5.3,1.1c-2.2,0-4-0.7-5.4-2s-2.1-3.1-2.1-5.3
	c0-1.1,0.2-2.1,0.5-3c0.3-0.9,0.8-1.7,1.4-2.4c0.5-0.6,1.1-1.1,2-1.6s1.6-0.8,2.3-1.1c0.9-0.3,2.7-1,5.4-1.9
	c2.7-0.9,4.5-1.6,5.5-2.1v-2.9c0-0.3-0.1-0.8-0.2-1.5s-0.3-1.4-0.7-2.1c-0.4-0.7-1-1.4-1.7-1.9c-0.7-0.5-1.7-0.8-3.1-0.8
	c-0.9,0-1.8,0.2-2.5,0.5c-0.8,0.3-1.3,0.6-1.6,1c0,0.4,0.1,1,0.3,1.7c0.2,0.8,0.3,1.5,0.3,2.1c0,0.7-0.3,1.3-0.9,1.9
	c-0.6,0.6-1.5,0.9-2.6,0.9c-1,0-1.7-0.4-2.2-1.1c-0.5-0.7-0.7-1.5-0.7-2.4c0-0.9,0.3-1.8,1-2.6s1.5-1.6,2.5-2.2c0.9-0.6,2-1,3.2-1.4
	c1.3-0.4,2.5-0.6,3.7-0.6c1.7,0,3.1,0.1,4.3,0.3c1.2,0.2,2.4,0.7,3.4,1.5c1,0.7,1.8,1.7,2.3,3c0.5,1.3,0.8,2.9,0.8,4.8
	c0,2.8,0,5.3-0.1,7.5c-0.1,2.2-0.1,4.6-0.1,7.2c0,0.8,0.1,1.4,0.4,1.8c0.3,0.5,0.7,0.8,1.2,1.2c0.3,0.2,0.8,0.3,1.4,0.3
	c0.6,0,1.3,0,2,0V288.8z M370,273.2c-1.7,0.5-3.1,1-4.4,1.5c-1.3,0.5-2.4,1.1-3.5,1.8c-1,0.7-1.8,1.5-2.3,2.4
	c-0.6,0.9-0.9,2-0.9,3.3c0,1.6,0.4,2.8,1.3,3.6c0.9,0.8,2,1.2,3.3,1.2c1.4,0,2.6-0.3,3.7-1c1.1-0.7,2-1.5,2.7-2.4L370,273.2z"/>
<path fill="#FFFFFF" d="M402.6,275.1c0.8,0.7,1.4,1.5,1.9,2.5c0.4,0.9,0.7,2.1,0.7,3.4c0,2.7-1,4.9-3,6.6c-2,1.7-4.6,2.6-7.9,2.6
	c-1.7,0-3.3-0.3-4.7-0.9s-2.5-1.2-3.1-1.7l-0.6,1.9h-2.2l-0.3-10.2h2c0.2,0.8,0.5,1.7,1,2.7c0.5,1,1.1,2,1.9,2.8
	c0.8,0.9,1.7,1.6,2.8,2.2c1.1,0.6,2.3,0.9,3.6,0.9c1.9,0,3.4-0.4,4.4-1.3s1.5-2.1,1.5-3.7c0-0.8-0.2-1.5-0.5-2.1
	c-0.3-0.6-0.8-1.1-1.4-1.6c-0.7-0.5-1.5-0.9-2.4-1.2c-0.9-0.4-2-0.7-3.2-1.1c-0.9-0.3-2-0.7-3.1-1.1c-1.1-0.5-2.1-1.1-2.9-1.7
	c-0.9-0.7-1.6-1.5-2.1-2.5s-0.8-2.2-0.8-3.6c0-2.4,0.9-4.4,2.7-6.1c1.8-1.7,4.2-2.5,7.1-2.5c1.1,0,2.3,0.1,3.5,0.4
	c1.2,0.3,2.2,0.7,2.9,1.1l0.7-1.5h2.1l0.4,9.4h-2c-0.4-2.1-1.3-3.8-2.7-5.1s-3-2-5-2c-1.6,0-2.9,0.4-3.8,1.2s-1.4,1.8-1.4,3
	c0,0.9,0.2,1.6,0.5,2.2c0.3,0.6,0.8,1.1,1.4,1.5c0.6,0.4,1.3,0.8,2.2,1.1c0.9,0.3,2,0.7,3.3,1.2c1.3,0.4,2.5,0.9,3.7,1.5
	C400.9,273.8,401.8,274.4,402.6,275.1z"/>
<path fill="#FFFFFF" d="M456.4,289.4h-14.3v-2c0.5,0,1-0.1,1.5-0.1c0.5,0,1-0.1,1.3-0.2c0.6-0.2,1-0.5,1.2-0.9s0.4-1,0.4-1.7v-15
	c0-2.1-0.5-3.7-1.5-4.8s-2.2-1.7-3.6-1.7c-1,0-2,0.2-2.9,0.5c-0.9,0.3-1.6,0.7-2.3,1.2c-0.7,0.5-1.2,0.9-1.6,1.5
	c-0.4,0.5-0.7,0.9-0.8,1.3v16.8c0,0.7,0.1,1.2,0.4,1.7c0.3,0.4,0.7,0.8,1.2,1c0.4,0.2,0.9,0.3,1.3,0.4c0.5,0.1,1,0.2,1.5,0.2v2
	h-14.3v-2c0.5,0,0.9-0.1,1.4-0.1c0.5,0,0.9-0.1,1.3-0.2c0.6-0.2,1-0.5,1.2-0.9c0.3-0.4,0.4-1,0.4-1.7v-18c0-0.7-0.1-1.3-0.4-1.8
	c-0.3-0.6-0.7-1-1.2-1.4c-0.4-0.2-0.8-0.4-1.3-0.5c-0.5-0.1-1.1-0.2-1.7-0.2v-2l9.7-0.7l0.4,0.4v4.1h0.1c0.5-0.5,1.1-1,1.8-1.7
	c0.7-0.7,1.4-1.2,2-1.6c0.7-0.5,1.6-0.9,2.6-1.2c1-0.3,2.1-0.5,3.4-0.5c2.8,0,4.9,0.9,6.2,2.6c1.4,1.7,2,4.1,2,7v15.2
	c0,0.7,0.1,1.2,0.4,1.7c0.2,0.4,0.6,0.8,1.2,1c0.5,0.2,0.9,0.3,1.2,0.4c0.3,0.1,0.8,0.1,1.4,0.2V289.4z"/>
<path fill="#FFFFFF" d="M488.4,274.5c0,2.1-0.3,4.1-1,6.1s-1.6,3.7-2.8,5c-1.4,1.6-2.9,2.8-4.7,3.5c-1.8,0.8-3.8,1.2-6,1.2
	c-1.9,0-3.6-0.4-5.3-1.1c-1.7-0.7-3.2-1.7-4.5-3.1c-1.3-1.3-2.3-2.9-3.1-4.8s-1.1-4-1.1-6.4c0-4.6,1.3-8.3,4-11.2
	c2.7-2.9,6.1-4.4,10.4-4.4c4.1,0,7.5,1.4,10.1,4.1C487.1,266.2,488.4,269.9,488.4,274.5z M482.3,274.5c0-1.5-0.1-3-0.4-4.7
	c-0.3-1.6-0.7-3-1.3-4.2c-0.6-1.2-1.5-2.2-2.5-2.9c-1-0.7-2.3-1.1-3.8-1.1c-1.5,0-2.8,0.4-3.9,1.1c-1.1,0.8-2,1.8-2.6,3.1
	c-0.6,1.2-1.1,2.6-1.3,4.1c-0.3,1.5-0.4,3-0.4,4.5c0,1.9,0.2,3.6,0.5,5.3c0.3,1.6,0.8,3,1.5,4.3c0.7,1.3,1.5,2.3,2.5,3
	c1,0.7,2.3,1.1,3.8,1.1c2.5,0,4.4-1.2,5.9-3.6C481.6,282,482.3,278.7,482.3,274.5z"/>
<path fill="#FFFFFF" d="M520.8,290.1c-4.2,0-7.5-1.4-9.9-4.2c-2.4-2.8-3.6-6.6-3.6-11.3c0-2.1,0.3-4,1-5.8s1.6-3.4,2.8-4.9
	c1.2-1.4,2.6-2.5,4.4-3.4c1.8-0.9,3.7-1.3,5.7-1.3c2.9,0,5.2,0.7,7,2.1c1.8,1.4,2.7,3.2,2.7,5.6c0,1-0.2,1.9-0.7,2.6
	c-0.5,0.8-1.3,1.1-2.3,1.1c-1.2,0-2.1-0.3-2.7-0.9s-1-1.2-1-2c0-0.9,0.1-1.8,0.4-2.7c0.2-0.9,0.4-1.6,0.4-2.1
	c-0.4-0.6-0.9-1-1.6-1.2c-0.7-0.2-1.5-0.3-2.3-0.3c-0.9,0-1.8,0.2-2.7,0.6c-0.9,0.4-1.7,1.1-2.5,2.2c-0.7,1-1.3,2.3-1.8,4
	c-0.5,1.7-0.7,3.7-0.7,6c0,3.7,0.8,6.7,2.4,9c1.6,2.3,3.8,3.5,6.4,3.5c1.9,0,3.5-0.5,4.8-1.4c1.3-0.9,2.5-2.3,3.6-4.2l1.9,1.2
	c-1.3,2.3-3,4.2-5.2,5.5S523,290.1,520.8,290.1z"/>
<path fill="#FFFFFF" d="M549,289.4h-14.1v-2c0.5,0,0.9-0.1,1.4-0.1c0.5,0,0.9-0.1,1.3-0.2c0.6-0.2,1-0.5,1.2-0.9
	c0.3-0.4,0.4-1,0.4-1.7v-18c0-0.6-0.1-1.2-0.4-1.7c-0.3-0.5-0.7-1-1.2-1.3c-0.4-0.2-0.9-0.4-1.6-0.6c-0.7-0.2-1.4-0.3-2-0.3v-2
	l10.3-0.7l0.4,0.4V284c0,0.7,0.1,1.3,0.4,1.7s0.7,0.8,1.3,1c0.4,0.2,0.9,0.3,1.3,0.4c0.4,0.1,0.9,0.2,1.4,0.2V289.4z M545.3,248.3
	c0,1.1-0.4,2.1-1.1,2.9c-0.7,0.8-1.7,1.3-2.7,1.3c-1,0-1.9-0.4-2.6-1.2c-0.7-0.8-1.1-1.7-1.1-2.7c0-1.1,0.4-2,1.1-2.8
	s1.6-1.2,2.6-1.2c1.1,0,2,0.4,2.8,1.1C544.9,246.4,545.3,247.3,545.3,248.3z"/>
<path fill="#FFFFFF" d="M577.6,286.3c0.8,0.8,1.4,1.6,1.9,2.5c0.5,0.9,0.7,2.1,0.7,3.5c0,1.4-0.3,2.7-0.9,4
	c-0.6,1.2-1.5,2.3-2.8,3.2c-1.3,0.9-2.9,1.6-4.7,2.2c-1.8,0.5-4.1,0.8-6.8,0.8c-4.4,0-7.7-0.6-9.9-1.9c-2.2-1.3-3.3-3.2-3.3-5.7
	c0-2,0.8-3.6,2.4-4.8c1.6-1.2,3.6-1.8,6-1.9v-0.4c-0.6-0.2-1.2-0.4-1.8-0.7c-0.6-0.3-1.2-0.6-1.6-0.9c-0.5-0.4-0.9-0.9-1.2-1.5
	s-0.5-1.3-0.5-2.1c0-1,0.4-2,1.1-2.9s1.9-1.6,3.4-2.3v-0.4c-1.9-0.9-3.4-2-4.4-3.4c-1-1.4-1.6-3-1.6-4.8c0-2.8,1-5,3.1-6.8
	c2.1-1.8,4.7-2.7,7.9-2.7c0.9,0,1.8,0.1,2.7,0.3c0.9,0.2,1.8,0.4,2.7,0.7h10.2v2.8h-6.9v0.2c0.7,0.8,1.3,1.8,1.6,2.8
	c0.4,1,0.5,2,0.5,3c0,2.6-1,4.7-3.1,6.5c-2.1,1.8-4.5,2.7-7.3,2.7h-3.6c-0.5,0.2-0.9,0.4-1.4,0.9c-0.5,0.4-0.7,1-0.7,1.7
	c0,0.7,0.2,1.3,0.6,1.7c0.4,0.4,0.9,0.6,1.5,0.8c0.6,0.2,1.2,0.3,2,0.3s1.5,0.1,2.4,0.1c0.9,0,2.1,0.1,3.6,0.2
	c1.5,0.1,2.6,0.2,3.2,0.2c0.9,0,1.8,0.3,2.7,0.7C576,285.1,576.9,285.7,577.6,286.3z M575.3,293.5c0-1.1-0.3-2-0.8-2.7
	c-0.5-0.7-1.3-1.2-2.3-1.5c-0.6-0.1-1.7-0.2-3.4-0.3c-1.7-0.1-3.7-0.1-6-0.1c-2.1,0.4-3.6,1.1-4.5,2.1c-0.9,1-1.3,2.2-1.3,3.8
	c0,0.7,0.1,1.4,0.4,2c0.3,0.6,0.8,1.2,1.5,1.7c0.7,0.5,1.6,0.9,2.8,1.3c1.2,0.3,2.6,0.5,4.3,0.5c2.9,0,5.2-0.6,6.9-1.7
	S575.3,295.8,575.3,293.5z M569.6,269c0-2.3-0.5-4.2-1.4-5.5c-0.9-1.4-2.3-2.1-4-2.1c-0.9,0-1.7,0.2-2.4,0.6
	c-0.7,0.4-1.2,0.9-1.6,1.6c-0.4,0.7-0.7,1.4-0.8,2.4c-0.2,0.9-0.3,1.9-0.3,2.8c0,2.2,0.5,4,1.4,5.4c1,1.4,2.2,2.1,3.7,2.1
	c1.7,0,3-0.7,3.9-2.1S569.6,271.1,569.6,269z"/>
<path fill="#FFFFFF" d="M611.1,288.8c-0.9,0.3-1.7,0.6-2.4,0.8c-0.7,0.2-1.5,0.3-2.4,0.3c-1.5,0-2.8-0.4-3.7-1.1
	c-0.9-0.7-1.5-1.8-1.8-3.2h-0.2c-1.3,1.4-2.7,2.5-4.1,3.3c-1.5,0.8-3.2,1.1-5.3,1.1c-2.2,0-4-0.7-5.4-2s-2.1-3.1-2.1-5.3
	c0-1.1,0.2-2.1,0.5-3c0.3-0.9,0.8-1.7,1.4-2.4c0.5-0.6,1.1-1.1,2-1.6s1.6-0.8,2.3-1.1c0.9-0.3,2.7-1,5.4-1.9
	c2.7-0.9,4.5-1.6,5.5-2.1v-2.9c0-0.3-0.1-0.8-0.2-1.5s-0.3-1.4-0.7-2.1c-0.4-0.7-1-1.4-1.7-1.9c-0.7-0.5-1.7-0.8-3.1-0.8
	c-0.9,0-1.8,0.2-2.5,0.5c-0.8,0.3-1.3,0.6-1.6,1c0,0.4,0.1,1,0.3,1.7c0.2,0.8,0.3,1.5,0.3,2.1c0,0.7-0.3,1.3-0.9,1.9
	c-0.6,0.6-1.5,0.9-2.6,0.9c-1,0-1.7-0.4-2.2-1.1c-0.5-0.7-0.7-1.5-0.7-2.4c0-0.9,0.3-1.8,1-2.6s1.5-1.6,2.5-2.2c0.9-0.6,2-1,3.2-1.4
	c1.3-0.4,2.5-0.6,3.7-0.6c1.7,0,3.1,0.1,4.3,0.3c1.2,0.2,2.4,0.7,3.4,1.5c1,0.7,1.8,1.7,2.3,3c0.5,1.3,0.8,2.9,0.8,4.8
	c0,2.8,0,5.3-0.1,7.5c-0.1,2.2-0.1,4.6-0.1,7.2c0,0.8,0.1,1.4,0.4,1.8c0.3,0.5,0.7,0.8,1.2,1.2c0.3,0.2,0.8,0.3,1.4,0.3
	c0.6,0,1.3,0,2,0V288.8z M600.8,273.2c-1.7,0.5-3.1,1-4.4,1.5c-1.3,0.5-2.4,1.1-3.5,1.8c-1,0.7-1.8,1.5-2.3,2.4
	c-0.6,0.9-0.9,2-0.9,3.3c0,1.6,0.4,2.8,1.3,3.6c0.9,0.8,2,1.2,3.3,1.2c1.4,0,2.6-0.3,3.7-1c1.1-0.7,2-1.5,2.7-2.4L600.8,273.2z"/>
<path fill="#FFFFFF" d="M636.4,263.9c0,1-0.2,1.9-0.7,2.7c-0.5,0.8-1.3,1.2-2.3,1.2c-1.1,0-2-0.3-2.5-0.9c-0.6-0.6-0.9-1.2-0.9-1.9
	c0-0.4,0-0.8,0.1-1.2c0.1-0.4,0.1-0.7,0.2-1.1c-0.9,0-2,0.4-3.3,1.1c-1.2,0.8-2.3,1.8-3.2,3.2v17c0,0.7,0.1,1.3,0.4,1.7
	c0.3,0.4,0.7,0.8,1.3,1c0.5,0.2,1.1,0.3,1.9,0.4s1.5,0.2,2,0.2v2H614v-2c0.5,0,0.9-0.1,1.4-0.1c0.5,0,0.9-0.1,1.3-0.2
	c0.6-0.2,1-0.5,1.2-0.9c0.3-0.4,0.4-1,0.4-1.7v-18c0-0.6-0.1-1.2-0.4-1.8s-0.7-1.1-1.2-1.4c-0.4-0.2-0.8-0.4-1.3-0.5
	c-0.5-0.1-1.1-0.2-1.7-0.2v-2l9.7-0.7l0.4,0.4v4.1h0.1c1.2-1.6,2.6-2.8,4.1-3.6c1.5-0.8,2.9-1.2,4.1-1.2c1.2,0,2.3,0.4,3,1.2
	C636,261.5,636.4,262.6,636.4,263.9z"/>
<path fill="#FFFFFF" d="M658.2,275.1c0.8,0.7,1.4,1.5,1.9,2.5c0.4,0.9,0.7,2.1,0.7,3.4c0,2.7-1,4.9-3,6.6c-2,1.7-4.6,2.6-7.9,2.6
	c-1.7,0-3.3-0.3-4.7-0.9s-2.5-1.2-3.1-1.7l-0.6,1.9h-2.2l-0.3-10.2h2c0.2,0.8,0.5,1.7,1,2.7c0.5,1,1.1,2,1.9,2.8
	c0.8,0.9,1.7,1.6,2.8,2.2c1.1,0.6,2.3,0.9,3.6,0.9c1.9,0,3.4-0.4,4.4-1.3s1.5-2.1,1.5-3.7c0-0.8-0.2-1.5-0.5-2.1
	c-0.3-0.6-0.8-1.1-1.4-1.6c-0.7-0.5-1.5-0.9-2.4-1.2c-0.9-0.4-2-0.7-3.2-1.1c-0.9-0.3-2-0.7-3.1-1.1c-1.1-0.5-2.1-1.1-2.9-1.7
	c-0.9-0.7-1.6-1.5-2.1-2.5s-0.8-2.2-0.8-3.6c0-2.4,0.9-4.4,2.7-6.1c1.8-1.7,4.2-2.5,7.1-2.5c1.1,0,2.3,0.1,3.5,0.4
	c1.2,0.3,2.2,0.7,2.9,1.1l0.7-1.5h2.1l0.4,9.4h-2c-0.4-2.1-1.3-3.8-2.7-5.1s-3-2-5-2c-1.6,0-2.9,0.4-3.8,1.2s-1.4,1.8-1.4,3
	c0,0.9,0.2,1.6,0.5,2.2c0.3,0.6,0.8,1.1,1.4,1.5c0.6,0.4,1.3,0.8,2.2,1.1c0.9,0.3,2,0.7,3.3,1.2c1.3,0.4,2.5,0.9,3.7,1.5
	C656.5,273.8,657.4,274.4,658.2,275.1z"/>
<path fill="#FFFFFF" d="M675.7,288.3c0,1.4-0.3,2.8-1,4c-0.6,1.3-1.4,2.3-2.2,3.3c-0.8,0.9-1.7,1.8-2.7,2.5s-1.8,1.3-2.6,1.7l-1.4-2
	c0.9-0.6,1.8-1.2,2.5-1.8c0.8-0.6,1.4-1.2,1.8-1.8c0.6-0.7,1.1-1.4,1.5-2.3c0.4-0.8,0.7-1.7,0.8-2.8H671c-1.3,0-2.4-0.3-3.1-1
	c-0.7-0.7-1.1-1.6-1.1-2.8c0-0.8,0.3-1.6,1-2.4c0.7-0.8,1.6-1.2,2.8-1.2c1.7,0,3,0.6,3.8,1.7S675.7,286.3,675.7,288.3z"/>
<path fill="#FFFFFF" d="M100.5,365.2H81.6v-2.1c0.5,0,1.3-0.1,2.3-0.2s1.7-0.2,2.1-0.4c0.7-0.3,1.1-0.6,1.4-1.1
	c0.3-0.4,0.4-1.1,0.4-1.9v-30.4c0-0.7-0.1-1.3-0.3-1.7c-0.2-0.5-0.7-0.9-1.5-1.2c-0.6-0.2-1.3-0.5-2.2-0.7c-0.9-0.2-1.6-0.3-2.2-0.4
	v-2.1h18.9v2.1c-0.6,0-1.3,0.1-2.2,0.2c-0.8,0.1-1.6,0.3-2.2,0.5c-0.8,0.2-1.3,0.6-1.5,1.2c-0.3,0.5-0.4,1.1-0.4,1.8v30.4
	c0,0.7,0.1,1.2,0.4,1.7c0.3,0.5,0.8,0.9,1.5,1.2c0.4,0.2,1.1,0.3,2,0.5c0.9,0.2,1.7,0.3,2.4,0.3V365.2z"/>
<path fill="#FFFFFF" d="M138.9,350.9c0.8,0.7,1.4,1.5,1.9,2.5c0.4,0.9,0.7,2.1,0.7,3.4c0,2.7-1,4.9-3,6.6c-2,1.7-4.6,2.6-7.9,2.6
	c-1.7,0-3.3-0.3-4.7-0.9c-1.4-0.6-2.5-1.2-3.1-1.7l-0.6,1.9H120l-0.3-10.2h2c0.2,0.8,0.5,1.7,1,2.7s1.1,2,1.9,2.8
	c0.8,0.9,1.7,1.6,2.8,2.2c1.1,0.6,2.3,0.9,3.6,0.9c1.9,0,3.4-0.4,4.4-1.3c1-0.9,1.5-2.1,1.5-3.7c0-0.8-0.2-1.5-0.5-2.1
	c-0.3-0.6-0.8-1.1-1.4-1.6c-0.7-0.5-1.5-0.9-2.4-1.2s-2-0.7-3.2-1.1c-0.9-0.3-2-0.7-3.1-1.1c-1.1-0.5-2.1-1.1-2.9-1.7
	c-0.9-0.7-1.6-1.5-2.1-2.5c-0.6-1-0.8-2.2-0.8-3.6c0-2.4,0.9-4.4,2.7-6.1c1.8-1.7,4.2-2.5,7.1-2.5c1.1,0,2.3,0.1,3.5,0.4
	c1.2,0.3,2.2,0.7,2.9,1.1l0.7-1.5h2.1l0.4,9.4h-2c-0.4-2.1-1.3-3.8-2.7-5.1s-3-2-5-2c-1.6,0-2.9,0.4-3.8,1.2c-0.9,0.8-1.4,1.8-1.4,3
	c0,0.9,0.2,1.6,0.5,2.2c0.3,0.6,0.8,1.1,1.4,1.5c0.6,0.4,1.3,0.8,2.2,1.1c0.9,0.3,2,0.7,3.3,1.2c1.3,0.4,2.5,0.9,3.7,1.5
	C137.2,349.6,138.2,350.2,138.9,350.9z"/>
<path fill="#FFFFFF" d="M177.6,365.2h-14.4v-2c0.5,0,1-0.1,1.5-0.1c0.6,0,1-0.1,1.4-0.2c0.6-0.2,1-0.5,1.2-0.9
	c0.3-0.4,0.4-1,0.4-1.7v-15c0-2.1-0.5-3.7-1.5-4.8s-2.2-1.7-3.6-1.7c-1,0-2,0.2-2.9,0.5c-0.9,0.3-1.7,0.7-2.4,1.2
	c-0.7,0.5-1.2,1-1.5,1.5c-0.4,0.5-0.6,0.9-0.8,1.2v16.8c0,0.7,0.1,1.2,0.4,1.7c0.3,0.4,0.7,0.8,1.2,1c0.4,0.2,0.9,0.3,1.3,0.4
	c0.5,0.1,1,0.2,1.5,0.2v2h-14.3v-2c0.5,0,0.9-0.1,1.4-0.1c0.5,0,0.9-0.1,1.2-0.2c0.5-0.2,1-0.5,1.2-0.9c0.3-0.4,0.4-1,0.4-1.7v-34
	c0-0.7-0.2-1.3-0.5-2s-0.7-1.2-1.2-1.5c-0.4-0.3-1-0.4-1.9-0.5c-0.9-0.1-1.6-0.2-2.2-0.2V320l10.8-0.7l0.4,0.4v20.4h0.1
	c0.7-0.7,1.2-1.2,1.8-1.7c0.5-0.5,1.2-1,2.1-1.6c0.8-0.5,1.6-0.9,2.7-1.2c1-0.3,2.2-0.5,3.4-0.5c2.6,0,4.6,0.8,6,2.5s2.1,4,2.1,7.1
	V360c0,0.7,0.1,1.2,0.4,1.7c0.2,0.4,0.7,0.8,1.2,1c0.5,0.2,0.9,0.3,1.2,0.4s0.9,0.2,1.4,0.2V365.2z"/>
<path fill="#FFFFFF" d="M208.8,364.6c-0.9,0.3-1.7,0.6-2.4,0.8s-1.5,0.3-2.4,0.3c-1.5,0-2.8-0.4-3.7-1.1c-0.9-0.7-1.5-1.8-1.8-3.2
	h-0.2c-1.3,1.4-2.7,2.5-4.1,3.3c-1.5,0.8-3.2,1.1-5.3,1.1c-2.2,0-4-0.7-5.4-2s-2.1-3.1-2.1-5.3c0-1.1,0.2-2.1,0.5-3s0.8-1.7,1.4-2.4
	c0.5-0.6,1.1-1.1,2-1.6c0.8-0.5,1.6-0.8,2.3-1.1c0.9-0.3,2.7-1,5.4-1.9c2.7-0.9,4.5-1.6,5.5-2.1v-2.9c0-0.3-0.1-0.8-0.2-1.5
	c-0.1-0.7-0.3-1.4-0.7-2.1c-0.4-0.7-1-1.4-1.7-1.9c-0.7-0.5-1.7-0.8-3.1-0.8c-0.9,0-1.8,0.2-2.5,0.5c-0.8,0.3-1.3,0.6-1.6,1
	c0,0.4,0.1,1,0.3,1.7s0.3,1.5,0.3,2.1c0,0.7-0.3,1.3-0.9,1.9c-0.6,0.6-1.5,0.9-2.6,0.9c-1,0-1.7-0.4-2.2-1.1
	c-0.5-0.7-0.7-1.5-0.7-2.4c0-0.9,0.3-1.8,1-2.6s1.5-1.6,2.5-2.2c0.9-0.6,2-1,3.2-1.4c1.3-0.4,2.5-0.6,3.7-0.6c1.7,0,3.1,0.1,4.3,0.3
	c1.2,0.2,2.4,0.7,3.4,1.5c1,0.7,1.8,1.7,2.3,3c0.5,1.3,0.8,2.9,0.8,4.8c0,2.8,0,5.3-0.1,7.5s-0.1,4.6-0.1,7.2c0,0.8,0.1,1.4,0.4,1.8
	s0.7,0.8,1.2,1.2c0.3,0.2,0.8,0.3,1.4,0.3c0.6,0,1.3,0,2,0V364.6z M198.5,349c-1.7,0.5-3.1,1-4.4,1.5c-1.3,0.5-2.4,1.1-3.5,1.8
	c-1,0.7-1.8,1.5-2.3,2.4c-0.6,0.9-0.9,2-0.9,3.3c0,1.6,0.4,2.8,1.3,3.6c0.9,0.8,1.9,1.2,3.3,1.2c1.4,0,2.6-0.3,3.7-1s2-1.5,2.7-2.4
	L198.5,349z"/>
<path fill="#FFFFFF" d="M225.4,365.2h-14.2v-2c0.5,0,0.9-0.1,1.5-0.1c0.5,0,0.9-0.1,1.3-0.2c0.6-0.2,1-0.5,1.2-0.9
	c0.3-0.4,0.4-1,0.4-1.7v-33.8c0-0.7-0.2-1.4-0.5-2c-0.3-0.6-0.7-1.1-1.2-1.5c-0.4-0.2-1-0.5-2-0.7c-0.9-0.2-1.7-0.3-2.3-0.4V320
	l11-0.7l0.4,0.4v40.1c0,0.7,0.1,1.3,0.4,1.7c0.3,0.4,0.7,0.8,1.2,1c0.4,0.2,0.9,0.3,1.3,0.4c0.4,0.1,0.9,0.2,1.4,0.2V365.2z"/>
<path fill="#FFFFFF" d="M242.8,365.2h-14.2v-2c0.5,0,0.9-0.1,1.5-0.1c0.5,0,0.9-0.1,1.3-0.2c0.6-0.2,1-0.5,1.2-0.9
	c0.3-0.4,0.4-1,0.4-1.7v-33.8c0-0.7-0.2-1.4-0.5-2c-0.3-0.6-0.7-1.1-1.2-1.5c-0.4-0.2-1-0.5-2-0.7c-0.9-0.2-1.7-0.3-2.3-0.4V320
	l11-0.7l0.4,0.4v40.1c0,0.7,0.1,1.3,0.4,1.7c0.3,0.4,0.7,0.8,1.2,1c0.4,0.2,0.9,0.3,1.3,0.4c0.4,0.1,0.9,0.2,1.4,0.2V365.2z"/>
<path fill="#FFFFFF" d="M293.3,365.2H279v-2c0.5,0,1-0.1,1.5-0.1c0.5,0,1-0.1,1.3-0.2c0.6-0.2,1-0.5,1.2-0.9c0.3-0.4,0.4-1,0.4-1.7
	v-15c0-2.1-0.5-3.7-1.5-4.8s-2.2-1.7-3.6-1.7c-1,0-2,0.2-2.9,0.5c-0.9,0.3-1.6,0.7-2.3,1.2c-0.7,0.5-1.2,0.9-1.6,1.5
	c-0.4,0.5-0.7,0.9-0.8,1.3v16.8c0,0.7,0.1,1.2,0.4,1.7c0.3,0.4,0.7,0.8,1.2,1c0.4,0.2,0.9,0.3,1.3,0.4c0.5,0.1,1,0.2,1.5,0.2v2
	h-14.3v-2c0.5,0,0.9-0.1,1.4-0.1c0.5,0,0.9-0.1,1.3-0.2c0.6-0.2,1-0.5,1.2-0.9c0.3-0.4,0.4-1,0.4-1.7v-18c0-0.7-0.1-1.3-0.4-1.8
	c-0.3-0.6-0.7-1-1.2-1.4c-0.4-0.2-0.8-0.4-1.3-0.5c-0.5-0.1-1.1-0.2-1.7-0.2v-2l9.7-0.7l0.4,0.4v4.1h0.1c0.5-0.5,1.1-1,1.8-1.7
	c0.7-0.7,1.4-1.2,2-1.6c0.7-0.5,1.6-0.9,2.6-1.2c1-0.3,2.1-0.5,3.4-0.5c2.8,0,4.9,0.9,6.2,2.6c1.4,1.7,2,4.1,2,7V360
	c0,0.7,0.1,1.2,0.4,1.7c0.2,0.4,0.6,0.8,1.2,1c0.5,0.2,0.9,0.3,1.2,0.4c0.3,0.1,0.8,0.1,1.4,0.2V365.2z"/>
<path fill="#FFFFFF" d="M325.4,350.3c0,2.1-0.3,4.1-1,6.1c-0.7,2-1.6,3.7-2.8,5c-1.4,1.6-2.9,2.8-4.7,3.5c-1.8,0.8-3.8,1.2-6,1.2
	c-1.9,0-3.6-0.4-5.3-1.1c-1.7-0.7-3.2-1.7-4.5-3.1c-1.3-1.3-2.3-2.9-3.1-4.8c-0.8-1.9-1.1-4-1.1-6.4c0-4.6,1.3-8.3,4-11.2
	c2.7-2.9,6.1-4.4,10.4-4.4c4.1,0,7.5,1.4,10.1,4.1C324.1,342,325.4,345.7,325.4,350.3z M319.3,350.3c0-1.5-0.1-3-0.4-4.7
	c-0.3-1.6-0.7-3-1.3-4.2c-0.6-1.2-1.5-2.2-2.5-2.9c-1-0.7-2.3-1.1-3.8-1.1c-1.5,0-2.8,0.4-3.9,1.1c-1.1,0.8-2,1.8-2.6,3.1
	c-0.6,1.2-1.1,2.6-1.3,4.1c-0.3,1.5-0.4,3-0.4,4.5c0,1.9,0.2,3.6,0.5,5.3c0.3,1.6,0.8,3,1.5,4.3c0.7,1.3,1.5,2.3,2.5,3
	c1,0.7,2.3,1.1,3.8,1.1c2.5,0,4.4-1.2,5.9-3.6C318.5,357.8,319.3,354.5,319.3,350.3z"/>
<path fill="#FFFFFF" d="M347.6,363.9c-1.3,0.5-2.5,1-3.6,1.3c-1.1,0.4-2.5,0.5-4.2,0.5c-2.4,0-4.2-0.6-5.2-1.9c-1-1.2-1.5-3-1.5-5.2
	v-19.8h-5.3v-2.8h5.4V327h5.4v9.1h8.4v2.8h-8.3v16.3c0,1.2,0,2.2,0.1,3.1c0.1,0.8,0.3,1.5,0.6,2.1c0.3,0.6,0.8,1,1.4,1.3
	c0.6,0.3,1.5,0.4,2.5,0.4c0.5,0,1.2,0,2.2-0.1c1-0.1,1.6-0.2,2-0.3V363.9z"/>
<path fill="#FFFFFF" d="M390.2,362.2c0.8,0.8,1.4,1.6,1.9,2.5c0.5,0.9,0.7,2.1,0.7,3.5c0,1.4-0.3,2.7-0.9,4
	c-0.6,1.2-1.5,2.3-2.8,3.2c-1.3,0.9-2.9,1.6-4.7,2.2c-1.8,0.5-4.1,0.8-6.8,0.8c-4.4,0-7.7-0.6-9.9-1.9s-3.3-3.2-3.3-5.7
	c0-2,0.8-3.6,2.4-4.8c1.6-1.2,3.6-1.8,6-1.9v-0.4c-0.6-0.2-1.2-0.4-1.8-0.7s-1.2-0.6-1.6-0.9c-0.5-0.4-0.9-0.9-1.2-1.5
	c-0.3-0.6-0.5-1.3-0.5-2.1c0-1,0.4-2,1.1-2.9c0.7-0.9,1.9-1.6,3.4-2.3v-0.4c-1.9-0.9-3.4-2-4.4-3.4c-1-1.4-1.6-3-1.6-4.8
	c0-2.8,1-5,3.1-6.8c2.1-1.8,4.7-2.7,7.9-2.7c0.9,0,1.8,0.1,2.7,0.3c0.9,0.2,1.8,0.4,2.7,0.7h10.2v2.8h-6.9v0.2
	c0.7,0.8,1.3,1.8,1.6,2.8c0.4,1,0.5,2,0.5,3c0,2.6-1,4.7-3.1,6.5c-2.1,1.8-4.5,2.7-7.3,2.7h-3.6c-0.5,0.2-0.9,0.4-1.4,0.9
	c-0.5,0.4-0.7,1-0.7,1.7c0,0.7,0.2,1.3,0.6,1.7c0.4,0.4,0.9,0.6,1.5,0.8c0.6,0.2,1.2,0.3,2,0.3c0.8,0,1.5,0.1,2.4,0.1
	c0.9,0,2.1,0.1,3.6,0.2c1.5,0.1,2.6,0.2,3.2,0.2c0.9,0,1.8,0.3,2.7,0.7C388.6,360.9,389.4,361.5,390.2,362.2z M387.9,369.3
	c0-1.1-0.3-2-0.8-2.7c-0.5-0.7-1.3-1.2-2.3-1.5c-0.6-0.1-1.7-0.2-3.4-0.3s-3.7-0.1-6-0.1c-2.1,0.4-3.6,1.1-4.5,2.1
	c-0.9,1-1.3,2.2-1.3,3.8c0,0.7,0.1,1.4,0.4,2c0.3,0.6,0.8,1.2,1.5,1.7c0.7,0.5,1.6,0.9,2.8,1.3c1.2,0.3,2.6,0.5,4.3,0.5
	c2.9,0,5.2-0.6,6.9-1.7S387.9,371.6,387.9,369.3z M382.2,344.8c0-2.3-0.5-4.2-1.4-5.5c-0.9-1.4-2.3-2.1-4-2.1
	c-0.9,0-1.7,0.2-2.4,0.6c-0.7,0.4-1.2,0.9-1.6,1.6c-0.4,0.7-0.7,1.4-0.8,2.4c-0.2,0.9-0.3,1.9-0.3,2.8c0,2.2,0.5,4,1.4,5.4
	c1,1.4,2.2,2.1,3.7,2.1c1.7,0,3-0.7,3.9-2.1S382.2,346.9,382.2,344.8z"/>
<path fill="#FFFFFF" d="M424.5,350.3c0,2.1-0.3,4.1-1,6.1s-1.6,3.7-2.8,5c-1.4,1.6-2.9,2.8-4.7,3.5c-1.8,0.8-3.8,1.2-6,1.2
	c-1.9,0-3.6-0.4-5.3-1.1c-1.7-0.7-3.2-1.7-4.5-3.1c-1.3-1.3-2.3-2.9-3.1-4.8c-0.8-1.9-1.1-4-1.1-6.4c0-4.6,1.3-8.3,4-11.2
	c2.7-2.9,6.1-4.4,10.4-4.4c4.1,0,7.5,1.4,10.1,4.1C423.2,342,424.5,345.7,424.5,350.3z M418.4,350.3c0-1.5-0.1-3-0.4-4.7
	c-0.3-1.6-0.7-3-1.3-4.2c-0.6-1.2-1.5-2.2-2.5-2.9c-1-0.7-2.3-1.1-3.8-1.1c-1.5,0-2.8,0.4-3.9,1.1c-1.1,0.8-2,1.8-2.6,3.1
	c-0.6,1.2-1.1,2.6-1.3,4.1c-0.3,1.5-0.4,3-0.4,4.5c0,1.9,0.2,3.6,0.5,5.3c0.3,1.6,0.8,3,1.5,4.3c0.7,1.3,1.5,2.3,2.5,3
	s2.3,1.1,3.8,1.1c2.5,0,4.4-1.2,5.9-3.6C417.7,357.8,418.4,354.5,418.4,350.3z"/>
<path fill="#FFFFFF" d="M461.4,363.9c-1.3,0.5-2.5,1-3.6,1.3c-1.1,0.4-2.5,0.5-4.2,0.5c-2.4,0-4.2-0.6-5.2-1.9c-1-1.2-1.5-3-1.5-5.2
	v-19.8h-5.3v-2.8h5.4V327h5.4v9.1h8.4v2.8h-8.3v16.3c0,1.2,0,2.2,0.1,3.1s0.3,1.5,0.6,2.1c0.3,0.6,0.8,1,1.4,1.3
	c0.6,0.3,1.5,0.4,2.5,0.4c0.5,0,1.2,0,2.2-0.1c1-0.1,1.6-0.2,2-0.3V363.9z"/>
<path fill="#FFFFFF" d="M496.1,365.2h-14.4v-2c0.5,0,1-0.1,1.5-0.1c0.6,0,1-0.1,1.4-0.2c0.6-0.2,1-0.5,1.2-0.9
	c0.3-0.4,0.4-1,0.4-1.7v-15c0-2.1-0.5-3.7-1.5-4.8s-2.2-1.7-3.6-1.7c-1,0-2,0.2-2.9,0.5c-0.9,0.3-1.7,0.7-2.4,1.2
	c-0.7,0.5-1.2,1-1.5,1.5c-0.4,0.5-0.6,0.9-0.8,1.2v16.8c0,0.7,0.1,1.2,0.4,1.7c0.3,0.4,0.7,0.8,1.2,1c0.4,0.2,0.9,0.3,1.3,0.4
	c0.5,0.1,1,0.2,1.5,0.2v2h-14.3v-2c0.5,0,0.9-0.1,1.4-0.1c0.5,0,0.9-0.1,1.2-0.2c0.5-0.2,1-0.5,1.2-0.9c0.3-0.4,0.4-1,0.4-1.7v-34
	c0-0.7-0.2-1.3-0.5-2c-0.3-0.7-0.7-1.2-1.2-1.5c-0.4-0.3-1-0.4-1.9-0.5c-0.9-0.1-1.6-0.2-2.2-0.2V320l10.8-0.7l0.4,0.4v20.4h0.1
	c0.7-0.7,1.2-1.2,1.8-1.7s1.2-1,2.1-1.6c0.8-0.5,1.6-0.9,2.7-1.2c1-0.3,2.2-0.5,3.4-0.5c2.6,0,4.6,0.8,6,2.5c1.4,1.6,2.1,4,2.1,7.1
	V360c0,0.7,0.1,1.2,0.4,1.7c0.2,0.4,0.7,0.8,1.2,1c0.5,0.2,0.9,0.3,1.2,0.4s0.8,0.2,1.4,0.2V365.2z"/>
<path fill="#FFFFFF" d="M525.5,358.3c-1.2,2.3-2.9,4.2-4.9,5.6s-4.4,2.1-7.1,2.1c-2.3,0-4.4-0.4-6.2-1.2c-1.8-0.8-3.2-2-4.4-3.4
	c-1.1-1.4-2-3.1-2.6-5c-0.6-1.9-0.8-3.9-0.8-6c0-1.9,0.3-3.8,0.9-5.6s1.5-3.5,2.7-4.9c1.1-1.4,2.5-2.5,4.2-3.4
	c1.7-0.9,3.5-1.3,5.6-1.3c2.1,0,4,0.3,5.5,1c1.5,0.7,2.8,1.6,3.7,2.8c0.9,1.1,1.6,2.4,2,3.9c0.4,1.5,0.7,3.1,0.7,4.9v2h-19.3
	c0,1.9,0.2,3.7,0.5,5.2c0.4,1.6,0.9,2.9,1.7,4.1c0.8,1.1,1.8,2.1,3,2.7c1.2,0.7,2.7,1,4.4,1c1.8,0,3.3-0.4,4.5-1.2
	c1.3-0.8,2.5-2.3,3.7-4.5L525.5,358.3z M519,347.2c0-1.1-0.1-2.3-0.3-3.5c-0.2-1.3-0.5-2.3-0.9-3.2c-0.5-0.9-1.1-1.6-1.9-2.2
	c-0.8-0.6-1.8-0.9-3.1-0.9c-2.1,0-3.8,0.9-5.2,2.6c-1.4,1.7-2.1,4.1-2.2,7.2H519z"/>
<path fill="#FFFFFF" d="M551.3,339.7c0,1-0.2,1.9-0.7,2.7c-0.5,0.8-1.3,1.2-2.3,1.2c-1.1,0-2-0.3-2.5-0.9c-0.6-0.6-0.9-1.2-0.9-1.9
	c0-0.4,0-0.8,0.1-1.2c0.1-0.4,0.1-0.7,0.2-1.1c-0.9,0-2,0.4-3.3,1.1c-1.2,0.8-2.3,1.8-3.2,3.2v17c0,0.7,0.1,1.3,0.4,1.7
	s0.7,0.8,1.3,1c0.5,0.2,1.1,0.3,1.9,0.4c0.8,0.1,1.5,0.2,2,0.2v2h-15.4v-2c0.5,0,0.9-0.1,1.4-0.1c0.5,0,0.9-0.1,1.3-0.2
	c0.6-0.2,1-0.5,1.2-0.9c0.3-0.4,0.4-1,0.4-1.7v-18c0-0.6-0.1-1.2-0.4-1.8s-0.7-1.1-1.2-1.4c-0.4-0.2-0.8-0.4-1.3-0.5
	c-0.5-0.1-1.1-0.2-1.7-0.2v-2l9.7-0.7l0.4,0.4v4.1h0.1c1.2-1.6,2.6-2.8,4.1-3.6c1.5-0.8,2.9-1.2,4.1-1.2c1.2,0,2.3,0.4,3,1.2
	C550.9,337.3,551.3,338.4,551.3,339.7z"/>
<path fill="#FFFFFF" d="M579.7,358.3c-1.2,2.3-2.9,4.2-4.9,5.6s-4.4,2.1-7.1,2.1c-2.3,0-4.4-0.4-6.2-1.2c-1.8-0.8-3.2-2-4.4-3.4
	c-1.1-1.4-2-3.1-2.6-5c-0.6-1.9-0.8-3.9-0.8-6c0-1.9,0.3-3.8,0.9-5.6s1.5-3.5,2.7-4.9c1.1-1.4,2.5-2.5,4.2-3.4
	c1.7-0.9,3.5-1.3,5.6-1.3c2.1,0,4,0.3,5.5,1c1.5,0.7,2.8,1.6,3.7,2.8c0.9,1.1,1.6,2.4,2,3.9c0.4,1.5,0.7,3.1,0.7,4.9v2h-19.3
	c0,1.9,0.2,3.7,0.5,5.2c0.4,1.6,0.9,2.9,1.7,4.1c0.8,1.1,1.8,2.1,3,2.7c1.2,0.7,2.7,1,4.4,1c1.8,0,3.3-0.4,4.5-1.2
	c1.3-0.8,2.5-2.3,3.7-4.5L579.7,358.3z M573.2,347.2c0-1.1-0.1-2.3-0.3-3.5c-0.2-1.3-0.5-2.3-0.9-3.2c-0.5-0.9-1.1-1.6-1.9-2.2
	c-0.8-0.6-1.8-0.9-3.1-0.9c-2.1,0-3.8,0.9-5.2,2.6c-1.4,1.7-2.1,4.1-2.2,7.2H573.2z"/>
<path fill="#FFFFFF" d="M593.2,361.8c0,1.1-0.4,2-1.2,2.8c-0.8,0.8-1.8,1.2-2.9,1.2s-2.1-0.4-2.9-1.2c-0.8-0.8-1.2-1.7-1.2-2.8
	s0.4-2.1,1.2-2.9s1.8-1.2,2.9-1.2s2.1,0.4,2.9,1.2C592.8,359.7,593.2,360.7,593.2,361.8z"/>
<path fill="#FFFFFF" d="M608.8,325.9c0,1.3-0.3,2.5-0.8,3.6c-0.6,1.1-1.2,2-2,2.8c-0.8,0.8-1.7,1.5-2.6,2.2s-1.7,1.1-2.3,1.4l-1-1.7
	c0.8-0.5,1.6-1,2.3-1.5c0.7-0.5,1.3-1,1.7-1.4c0.5-0.6,1-1.2,1.3-1.9c0.3-0.6,0.5-1.5,0.6-2.5h-1.4c-1.2,0-2.2-0.3-2.9-0.9
	c-0.7-0.6-1-1.5-1-2.6c0-0.8,0.3-1.6,0.9-2.3c0.6-0.7,1.5-1.1,2.6-1.1c1.7,0,2.9,0.6,3.6,1.7C608.4,322.7,608.8,324.1,608.8,325.9z"
	/>
<path fill="#FFFFFF" d="M622.5,325.9c0,1.3-0.3,2.5-0.8,3.6c-0.6,1.1-1.2,2-2,2.8c-0.8,0.8-1.7,1.5-2.6,2.2s-1.7,1.1-2.3,1.4l-1-1.7
	c0.8-0.5,1.6-1,2.3-1.5c0.7-0.5,1.3-1,1.7-1.4c0.5-0.6,1-1.2,1.3-1.9c0.3-0.6,0.5-1.5,0.6-2.5h-1.4c-1.2,0-2.2-0.3-2.9-0.9
	c-0.7-0.6-1-1.5-1-2.6c0-0.8,0.3-1.6,0.9-2.3c0.6-0.7,1.5-1.1,2.6-1.1c1.7,0,2.9,0.6,3.6,1.7C622.2,322.7,622.5,324.1,622.5,325.9z"
	/>
<path fill="#FFFFFF" d="M206.7,442l-0.8,3.4h-13.2l0.8-3.4H206.7z"/>
<path fill="#FFFFFF" d="M252.5,424.3l-0.3,1.5c-0.4,0-1,0.1-1.6,0.2c-0.7,0.1-1.2,0.2-1.5,0.3c-0.6,0.2-1,0.5-1.2,0.9
	c-0.3,0.4-0.4,0.9-0.6,1.3l-5.3,22.9c0,0.1-0.1,0.3-0.1,0.4c0,0.1,0,0.3,0,0.4c0,0.3,0.1,0.6,0.2,0.8s0.4,0.5,0.7,0.7
	c0.2,0.1,0.6,0.3,1.3,0.4c0.7,0.1,1.2,0.2,1.6,0.2l-0.4,1.5h-13.9l0.4-1.5c0.5,0,1.2-0.1,2-0.2c0.8-0.1,1.4-0.2,1.7-0.4
	c0.5-0.3,0.9-0.6,1.3-1c0.3-0.4,0.5-0.8,0.6-1.4l5.5-23.5h-0.3l-17.2,27.3h-1.1l-4-27.9h-0.2l-4.5,19.4c-0.2,0.8-0.3,1.5-0.4,2.3
	c-0.1,0.7-0.2,1.3-0.2,1.8c0,0.5,0.1,0.9,0.2,1.3c0.1,0.3,0.3,0.6,0.4,0.9c0.3,0.3,0.8,0.6,1.7,0.8s1.5,0.4,2,0.5l-0.4,1.5h-12.8
	l0.4-1.5c0.7-0.1,1.4-0.2,2.1-0.3c0.7-0.1,1.3-0.4,1.9-0.8c0.6-0.4,1.1-1.1,1.5-2s0.8-2.3,1.3-4.3l3.8-16.3c0.1-0.3,0.1-0.6,0.2-0.9
	c0-0.3,0.1-0.5,0.1-0.8c0-0.5-0.1-0.9-0.2-1.2s-0.3-0.6-0.5-0.8c-0.4-0.4-0.9-0.7-1.6-0.9s-1.3-0.3-1.8-0.3l0.3-1.5h10.6l3.4,23.7
	l12.2-19.8c0.5-0.8,0.9-1.5,1.3-2.3s0.6-1.3,0.7-1.5H252.5z"/>
<path fill="#FFFFFF" d="M265.5,452.9h-0.2c-0.3,0.3-0.7,0.6-1.2,1c-0.5,0.4-1,0.8-1.6,1.2c-0.6,0.4-1.2,0.7-1.9,1
	c-0.7,0.3-1.4,0.4-2.2,0.4c-2.1,0-3.8-0.8-5-2.3c-1.2-1.5-1.8-3.6-1.8-6.3c0-1.8,0.3-3.6,1-5.4c0.7-1.7,1.6-3.3,2.8-4.7
	c1.1-1.3,2.5-2.4,4.1-3.2c1.6-0.8,3.2-1.2,4.8-1.2c1.1,0,2.1,0.1,3,0.4c1,0.3,1.7,0.6,2.3,1l4.1-1l0.3,0.3l-3.4,14.3
	c-0.1,0.5-0.2,1-0.4,1.7c-0.1,0.7-0.2,1.1-0.2,1.5c0,0.8,0.2,1.4,0.5,1.7c0.4,0.3,1,0.4,1.8,0.4c0.3,0,0.7,0,1.2-0.1
	c0.5-0.1,0.9-0.2,1.2-0.3l-0.3,1.4c-1.3,0.5-2.3,0.9-3,1.2c-0.7,0.2-1.4,0.4-2.4,0.4c-1.1,0-1.9-0.3-2.5-0.9
	C265.9,454.6,265.6,453.8,265.5,452.9z M268.7,438.8c0-0.5-0.1-1-0.2-1.4c-0.1-0.4-0.3-0.9-0.6-1.2c-0.3-0.4-0.7-0.7-1.2-0.9
	c-0.5-0.2-1.2-0.3-2-0.3c-1.1,0-2.1,0.4-3.2,1.1c-1,0.7-1.9,1.7-2.8,2.9c-0.8,1.1-1.4,2.5-1.9,4.1c-0.5,1.6-0.7,3.2-0.7,4.9
	c0,0.9,0.1,1.7,0.2,2.4c0.1,0.7,0.3,1.3,0.6,1.9c0.3,0.6,0.7,1,1.2,1.3c0.5,0.3,1.2,0.5,2,0.5c0.8,0,1.7-0.2,2.6-0.7
	c0.9-0.5,1.9-1.3,3.1-2.5L268.7,438.8z"/>
<path fill="#FFFFFF" d="M297.3,437c0,0.4-0.1,0.9-0.2,1.4s-0.3,0.9-0.5,1.2c-0.3,0.4-0.6,0.7-0.9,0.9s-0.8,0.3-1.4,0.3
	c-0.8,0-1.4-0.2-1.8-0.6c-0.4-0.4-0.6-0.8-0.6-1.3c0-0.5,0.1-1,0.3-1.5c0.2-0.6,0.5-1.1,0.7-1.7c-0.2,0-0.5,0-0.9,0.1
	c-0.4,0.1-0.9,0.3-1.5,0.6c-0.6,0.3-1.2,0.7-2,1.3s-1.5,1.3-2.3,2.2l-3.6,15.9h-4.1l3.2-14.4c0.1-0.4,0.2-0.9,0.3-1.6
	c0.1-0.7,0.2-1.2,0.2-1.6c0-0.8-0.1-1.4-0.4-1.7c-0.3-0.3-0.8-0.4-1.7-0.4c-0.3,0-0.7,0.1-1.2,0.2c-0.5,0.1-0.9,0.2-1.2,0.3l0.3-1.4
	c1.2-0.5,2.2-0.9,3.1-1.2c0.9-0.3,1.7-0.4,2.3-0.4c1.2,0,2,0.3,2.5,1c0.5,0.6,0.8,1.6,0.8,2.9h0.1c1.8-1.5,3.1-2.6,4-3.2
	c0.9-0.6,1.9-0.9,2.9-0.9c0.5,0,0.9,0.1,1.4,0.2c0.4,0.1,0.8,0.3,1.1,0.6c0.3,0.3,0.6,0.7,0.7,1.1
	C297.2,435.6,297.3,436.2,297.3,437z"/>
<path fill="#FFFFFF" d="M320.9,435.9c0,0.7-0.3,1.3-0.8,1.8c-0.5,0.6-1.1,0.8-1.9,0.8c-0.5,0-1-0.1-1.4-0.2c-0.5-0.1-1-0.3-1.6-0.6
	c-0.8,0.5-1.7,1-2.5,1.7c-0.9,0.7-1.8,1.5-2.8,2.4c0.8,2.2,1.6,4,2.1,5.4c0.6,1.4,1.1,2.5,1.5,3.4c0.5,1.1,1.1,1.9,1.8,2.4
	c0.6,0.5,1.4,0.7,2.1,0.7c0.4,0,0.8-0.1,1.5-0.2c0.6-0.1,1.1-0.2,1.4-0.3l-0.3,1.5c-1.4,0.6-2.5,0.9-3.2,1.1
	c-0.8,0.2-1.6,0.3-2.4,0.3c-0.9,0-1.8-0.3-2.4-0.8s-1.3-1.5-1.9-2.9c-0.6-1.3-1.1-2.6-1.6-3.9s-0.9-2.5-1.4-3.6l-2.6,2.2l-1.9,8.6
	h-4.1l6.6-28.6c0.1-0.5,0.2-0.8,0.2-1c0-0.2,0.1-0.4,0.1-0.7c0-0.5-0.1-0.9-0.3-1.2c-0.2-0.3-0.4-0.5-0.8-0.7
	c-0.3-0.1-0.7-0.2-1.2-0.3c-0.5,0-1-0.1-1.5-0.2l0.3-1.4l8.3-0.5l0.2,0.3l-5.4,23.1h0.1c1.7-1.8,3.2-3.4,4.6-4.7s2.8-2.7,4.3-4.1
	c1.1-1,1.9-1.6,2.5-2c0.6-0.4,1.3-0.5,2-0.5c0.8,0,1.4,0.2,1.8,0.6C320.7,434.6,320.9,435.2,320.9,435.9z"/>
<path fill="#FFFFFF" d="M364.4,424.3l-2,8.6h-1.5c0-0.5-0.1-1.2-0.2-2c-0.1-0.8-0.3-1.5-0.5-2.2c-0.3-0.7-0.6-1.3-1-1.8
	c-0.4-0.5-0.9-0.8-1.4-0.9c-0.4-0.1-1-0.1-1.7-0.1c-0.7,0-1.3,0-1.9,0h-1.4l-5.9,25.4c0,0.1-0.1,0.2-0.1,0.4c0,0.1,0,0.3,0,0.4
	c0,0.4,0.1,0.6,0.2,0.9s0.4,0.4,0.8,0.6c0.3,0.1,0.8,0.3,1.6,0.4c0.8,0.2,1.4,0.3,1.9,0.3l-0.4,1.5H336l0.4-1.5
	c0.4,0,1.1-0.1,1.9-0.2s1.5-0.2,1.8-0.3c0.6-0.2,1-0.5,1.3-0.9c0.3-0.4,0.5-0.8,0.6-1.4l5.9-25.6h-1.2c-0.4,0-1,0-1.7,0
	s-1.3,0.1-2,0.1c-0.5,0.1-1.1,0.4-1.7,0.9c-0.7,0.5-1.3,1.1-2,1.9c-0.6,0.7-1.2,1.4-1.7,2.1c-0.5,0.7-0.9,1.4-1.2,1.9H335l2-8.6
	H364.4z"/>
<path fill="#FFFFFF" d="M396.2,437.5c0,2.3-0.3,4.6-1,6.9c-0.7,2.3-1.6,4.3-2.7,6c-1.3,1.9-2.7,3.4-4.4,4.5s-3.4,1.6-5.3,1.6
	c-1.4,0-2.7-0.4-3.9-1.2c-1.2-0.8-2-1.8-2.4-3.2c-0.5,0.5-1,1-1.5,1.4c-0.5,0.4-1,0.9-1.8,1.4c-0.7,0.5-1.4,0.8-2,1.1
	s-1.4,0.4-2.3,0.4c-1.1,0-2.1-0.2-2.8-0.5c-0.7-0.3-1.3-0.8-1.8-1.4c-0.4-0.5-0.7-1.1-0.9-1.8s-0.3-1.4-0.3-2.1c0-0.3,0-0.6,0.1-1.1
	c0.1-0.4,0.1-0.8,0.2-1.1l1.9-7c0.2-0.7,0.3-1.3,0.4-1.8c0.1-0.5,0.1-1,0.1-1.4c0-0.8-0.1-1.4-0.4-1.7c-0.3-0.3-0.8-0.4-1.7-0.4
	c-0.3,0-0.7,0.1-1.2,0.2c-0.5,0.1-0.9,0.2-1.2,0.3l0.3-1.4c1.2-0.5,2.2-0.9,3-1.2c0.9-0.3,1.6-0.4,2.1-0.4c1.2,0,2,0.3,2.6,0.8
	s0.8,1.3,0.8,2.4c0,0.3,0,0.6-0.1,1.1c-0.1,0.5-0.1,0.9-0.3,1.4l-2.1,8.2c-0.1,0.5-0.2,1.1-0.3,1.7s-0.1,1-0.1,1.3
	c0,1.1,0.2,2,0.7,2.5c0.4,0.6,1.2,0.9,2.2,0.9c0.9,0,1.9-0.3,2.9-0.8c1-0.5,2-1.3,2.8-2.2l3.9-16.9l3.9-0.3l0.3,0.3l-3.1,13.5
	c-0.1,0.4-0.2,1-0.3,1.6c-0.1,0.6-0.2,1-0.2,1.2c0,0.8,0.1,1.5,0.4,1.9c0.3,0.5,0.6,0.8,1,1c0.4,0.2,0.8,0.4,1.2,0.4
	c0.4,0.1,0.8,0.1,1.2,0.1c1,0,2-0.3,3.1-1c1.1-0.6,2-1.5,2.8-2.5c0.9-1.1,1.6-2.4,2.1-3.8c0.5-1.4,0.8-2.9,0.8-4.5
	c0-0.9-0.1-1.6-0.4-2.1s-0.5-0.9-0.8-1.3c-0.3-0.4-0.6-0.8-0.8-1.2c-0.2-0.4-0.4-1-0.4-1.7c0-0.8,0.3-1.5,0.8-1.9s1.2-0.7,1.8-0.7
	c0.9,0,1.6,0.4,2.1,1.1C396,435.1,396.2,436.2,396.2,437.5z"/>
<path fill="#FFFFFF" d="M413.1,452.9h-0.2c-0.3,0.3-0.7,0.6-1.2,1c-0.5,0.4-1,0.8-1.6,1.2c-0.6,0.4-1.2,0.7-1.9,1
	c-0.7,0.3-1.4,0.4-2.2,0.4c-2.1,0-3.8-0.8-5-2.3c-1.2-1.5-1.8-3.6-1.8-6.3c0-1.8,0.3-3.6,1-5.4c0.7-1.7,1.6-3.3,2.8-4.7
	c1.1-1.3,2.5-2.4,4.1-3.2c1.6-0.8,3.2-1.2,4.8-1.2c1,0,2.1,0.1,3,0.4c1,0.3,1.7,0.6,2.3,1l4.1-1l0.3,0.3l-3.4,14.3
	c-0.1,0.5-0.2,1-0.4,1.7c-0.1,0.7-0.2,1.1-0.2,1.5c0,0.8,0.2,1.4,0.5,1.7c0.4,0.3,1,0.4,1.8,0.4c0.3,0,0.7,0,1.2-0.1
	c0.5-0.1,0.9-0.2,1.2-0.3l-0.3,1.4c-1.3,0.5-2.3,0.9-3,1.2c-0.7,0.2-1.4,0.4-2.4,0.4c-1.1,0-1.9-0.3-2.5-0.9
	C413.5,454.6,413.1,453.8,413.1,452.9z M416.3,438.8c0-0.5-0.1-1-0.2-1.4c-0.1-0.4-0.3-0.9-0.6-1.2c-0.3-0.4-0.7-0.7-1.2-0.9
	c-0.5-0.2-1.2-0.3-2-0.3c-1.1,0-2.1,0.4-3.2,1.1c-1,0.7-1.9,1.7-2.8,2.9c-0.8,1.1-1.4,2.5-1.9,4.1c-0.5,1.6-0.7,3.2-0.7,4.9
	c0,0.9,0.1,1.7,0.2,2.4c0.1,0.7,0.3,1.3,0.6,1.9c0.3,0.6,0.7,1,1.2,1.3c0.5,0.3,1.2,0.5,2,0.5c0.8,0,1.7-0.2,2.6-0.7
	c0.9-0.5,1.9-1.3,3.1-2.5L416.3,438.8z"/>
<path fill="#FFFFFF" d="M435.9,453.4l-0.3,1.4c-1.4,0.5-2.5,0.9-3.3,1.1c-0.8,0.2-1.5,0.3-2.1,0.3c-1.2,0-2.1-0.3-2.7-0.9
	c-0.6-0.6-0.9-1.4-0.9-2.3c0-0.3,0-0.7,0.1-1.1c0.1-0.4,0.2-0.8,0.3-1.4l2.3-9.5c0.1-0.5,0.2-1.1,0.3-1.7c0.1-0.6,0.2-1.1,0.2-1.5
	c0-0.8-0.1-1.4-0.4-1.7s-0.8-0.4-1.7-0.4c-0.3,0-0.8,0.1-1.3,0.2s-0.9,0.2-1.2,0.3l0.3-1.4c1.2-0.5,2.2-0.9,3.1-1.2
	c0.9-0.3,1.6-0.4,2.2-0.4c1.2,0,2.1,0.3,2.6,0.9c0.5,0.6,0.8,1.4,0.8,2.3c0,0.3,0,0.6-0.1,1.1c-0.1,0.5-0.1,0.9-0.3,1.4l-2.4,9.4
	c-0.1,0.6-0.3,1.1-0.4,1.7c-0.1,0.6-0.2,1-0.2,1.4c0,0.8,0.2,1.4,0.6,1.7c0.4,0.3,1,0.5,1.8,0.5c0.3,0,0.7,0,1.2-0.1
	C435.2,453.6,435.7,453.5,435.9,453.4z M437.5,425c0,0.8-0.3,1.6-0.8,2.2c-0.5,0.6-1.2,0.9-2,0.9c-0.8,0-1.4-0.3-2-0.9
	s-0.8-1.3-0.8-2.1c0-0.8,0.3-1.5,0.8-2.1s1.2-0.9,2-0.9c0.8,0,1.5,0.3,2.1,0.9C437.2,423.6,437.5,424.2,437.5,425z"/>
<path fill="#FFFFFF" d="M462.7,453.2l-0.3,1.4c-1.3,0.5-2.4,0.9-3.1,1.2c-0.7,0.2-1.5,0.4-2.3,0.4c-1.2,0-2.1-0.3-2.7-0.9
	c-0.6-0.6-0.9-1.4-0.9-2.3c0-0.3,0-0.7,0.1-1.1s0.2-0.9,0.3-1.4l2.2-8.3c0.2-0.6,0.3-1.2,0.4-1.7c0.1-0.5,0.1-0.9,0.1-1.2
	c0-1-0.2-1.8-0.7-2.4s-1.2-0.9-2.1-0.9c-0.9,0-1.9,0.3-3,0.9c-1.1,0.6-2.2,1.5-3.2,2.6l-3.8,16.3h-4.1l3.3-14.4
	c0.1-0.4,0.2-0.9,0.3-1.5s0.2-1.2,0.2-1.6c0-0.8-0.1-1.4-0.4-1.7c-0.3-0.3-0.8-0.4-1.7-0.4c-0.3,0-0.7,0.1-1.3,0.2
	c-0.5,0.1-0.9,0.2-1.2,0.3l0.3-1.4c1.2-0.5,2.2-0.9,3.1-1.2c0.9-0.3,1.7-0.4,2.3-0.4c1.2,0,2,0.3,2.5,1s0.8,1.5,0.8,2.6h0.1
	c1.6-1.3,3-2.3,4.2-2.9c1.2-0.6,2.5-0.9,4-0.9c1.4,0,2.5,0.4,3.3,1.2c0.8,0.8,1.2,1.9,1.2,3.2c0,0.3,0,0.7-0.1,1.4
	c-0.1,0.7-0.2,1.4-0.4,2l-1.9,7.1c-0.1,0.5-0.3,1-0.4,1.6s-0.2,1.1-0.2,1.4c0,0.8,0.2,1.4,0.6,1.7c0.4,0.3,1,0.5,1.8,0.5
	c0.3,0,0.7,0,1.2-0.1S462.5,453.3,462.7,453.2z"/>
</svg>
